{
    "asset" : {
        "generator" : "Khronos glTF Blender I/O v1.8.19",
        "version" : "2.0"
    },
    "scene" : 0,
    "scenes" : [
        {
            "name" : "Scene",
            "nodes" : [
                0
            ]
        }
    ],
    "nodes" : [
        {
            "mesh" : 0,
            "name" : "arrow"
        }
    ],
    "meshes" : [
        {
            "name" : "Cube.001",
            "primitives" : [
                {
                    "attributes" : {
                        "POSITION" : 0,
                        "NORMAL" : 1,
                        "TEXCOORD_0" : 2
                    },
                    "indices" : 3
                }
            ]
        }
    ],
    "accessors" : [
        {
            "bufferView" : 0,
            "componentType" : 5126,
            "count" : 2310,
            "max" : [
                1.0000001192092896,
                0.09999994188547134,
                0.5293112397193909
            ],
            "min" : [
                -3.360299874557201e-16,
                -0.10000015050172806,
                -0.47068873047828674
            ],
            "type" : "VEC3"
        },
        {
            "bufferView" : 1,
            "componentType" : 5126,
            "count" : 2310,
            "type" : "VEC3"
        },
        {
            "bufferView" : 2,
            "componentType" : 5126,
            "count" : 2310,
            "type" : "VEC2"
        },
        {
            "bufferView" : 3,
            "componentType" : 5123,
            "count" : 2976,
            "type" : "SCALAR"
        }
    ],
    "bufferViews" : [
        {
            "buffer" : 0,
            "byteLength" : 27720,
            "byteOffset" : 0
        },
        {
            "buffer" : 0,
            "byteLength" : 27720,
            "byteOffset" : 27720
        },
        {
            "buffer" : 0,
            "byteLength" : 18480,
            "byteOffset" : 55440
        },
        {
            "buffer" : 0,
            "byteLength" : 5952,
            "byteOffset" : 73920
        }
    ],
    "buffers" : [
        {
            "byteLength" : 79872,
            "uri" : "data:application/octet-stream;base64,"
        }
    ]
}
