{
    "asset" : {
        "generator" : "Khronos glTF Blender I/O v1.8.19",
        "version" : "2.0"
    },
    "scene" : 0,
    "scenes" : [
        {
            "name" : "Scene",
            "nodes" : [
                0
            ]
        }
    ],
    "nodes" : [
        {
            "mesh" : 0,
            "name" : "arrow"
        }
    ],
    "meshes" : [
        {
            "name" : "Cube.001",
            "primitives" : [
                {
                    "attributes" : {
                        "POSITION" : 0,
                        "NORMAL" : 1,
                        "TEXCOORD_0" : 2
                    },
                    "indices" : 3
                }
            ]
        }
    ],
    "accessors" : [
        {
            "bufferView" : 0,
            "componentType" : 5126,
            "count" : 1982,
            "max" : [
                0.10000001639127731,
                1,
                0.5293112397193909
            ],
            "min" : [
                -0.10000002384185791,
                0,
                -0.47068873047828674
            ],
            "type" : "VEC3"
        },
        {
            "bufferView" : 1,
            "componentType" : 5126,
            "count" : 1982,
            "type" : "VEC3"
        },
        {
            "bufferView" : 2,
            "componentType" : 5126,
            "count" : 1982,
            "type" : "VEC2"
        },
        {
            "bufferView" : 3,
            "componentType" : 5123,
            "count" : 2976,
            "type" : "SCALAR"
        }
    ],
    "bufferViews" : [
        {
            "buffer" : 0,
            "byteLength" : 23784,
            "byteOffset" : 0
        },
        {
            "buffer" : 0,
            "byteLength" : 23784,
            "byteOffset" : 23784
        },
        {
            "buffer" : 0,
            "byteLength" : 15856,
            "byteOffset" : 47568
        },
        {
            "buffer" : 0,
            "byteLength" : 5952,
            "byteOffset" : 63424
        }
    ],
    "buffers" : [
        {
            "byteLength" : 69376,
            "uri" : "data:application/octet-stream;base64,"
        }
    ]
}
