{
    "asset" : {
        "generator" : "Khronos glTF Blender I/O v1.8.19",
        "version" : "2.0"
    },
    "scene" : 0,
    "scenes" : [
        {
            "name" : "Scene",
            "nodes" : [
                0
            ]
        }
    ],
    "nodes" : [
        {
            "mesh" : 0,
            "name" : "house",
            "rotation" : [
                0,
                0.9999052286148071,
                0,
                0.013769267126917839
            ]
        }
    ],
    "materials" : [
        {
            "doubleSided" : true,
            "name" : "housemat",
            "pbrMetallicRoughness" : {
                "baseColorTexture" : {
                    "index" : 0
                },
                "metallicFactor" : 0,
                "roughnessFactor" : 0.5
            }
        }
    ],
    "meshes" : [
        {
            "name" : "Sphere.036",
            "primitives" : [
                {
                    "attributes" : {
                        "POSITION" : 0,
                        "NORMAL" : 1,
                        "TEXCOORD_0" : 2
                    },
                    "indices" : 3,
                    "material" : 0
                }
            ]
        }
    ],
    "textures" : [
        {
            "sampler" : 0,
            "source" : 0
        }
    ],
    "images" : [
        {
            "bufferView" : 4,
            "mimeType" : "image/png",
            "name" : "Gradients"
        }
    ],
    "accessors" : [
        {
            "bufferView" : 0,
            "componentType" : 5126,
            "count" : 1236,
            "max" : [
                0.494340717792511,
                0.9515272378921509,
                0.4725360572338104
            ],
            "min" : [
                -0.4943370819091797,
                -4.8730580459732664e-08,
                -0.4725358784198761
            ],
            "type" : "VEC3"
        },
        {
            "bufferView" : 1,
            "componentType" : 5126,
            "count" : 1236,
            "type" : "VEC3"
        },
        {
            "bufferView" : 2,
            "componentType" : 5126,
            "count" : 1236,
            "type" : "VEC2"
        },
        {
            "bufferView" : 3,
            "componentType" : 5123,
            "count" : 2595,
            "type" : "SCALAR"
        }
    ],
    "bufferViews" : [
        {
            "buffer" : 0,
            "byteLength" : 14832,
            "byteOffset" : 0
        },
        {
            "buffer" : 0,
            "byteLength" : 14832,
            "byteOffset" : 14832
        },
        {
            "buffer" : 0,
            "byteLength" : 9888,
            "byteOffset" : 29664
        },
        {
            "buffer" : 0,
            "byteLength" : 5190,
            "byteOffset" : 39552
        },
        {
            "buffer" : 0,
            "byteLength" : 82823,
            "byteOffset" : 44744
        }
    ],
    "samplers" : [
        {
            "magFilter" : 9729,
            "minFilter" : 9987
        }
    ],
    "buffers" : [
        {
            "byteLength" : 127568,
            "uri" : "data:application/octet-stream;base64,"
        }
    ]
}
