{
    "asset" : {
        "generator" : "Khronos glTF Blender I/O v1.8.19",
        "version" : "2.0"
    },
    "scene" : 0,
    "scenes" : [
        {
            "name" : "Scene",
            "nodes" : [
                0
            ]
        }
    ],
    "nodes" : [
        {
            "mesh" : 0,
            "name" : "rocks"
        }
    ],
    "materials" : [
        {
            "doubleSided" : true,
            "name" : "rocksmat",
            "normalTexture" : {
                "index" : 0
            },
            "occlusionTexture" : {
                "index" : 1
            },
            "pbrMetallicRoughness" : {
                "baseColorTexture" : {
                    "index" : 2
                },
                "metallicFactor" : 0,
                "metallicRoughnessTexture" : {
                    "index" : 1
                }
            }
        }
    ],
    "meshes" : [
        {
            "name" : "rocks",
            "primitives" : [
                {
                    "attributes" : {
                        "POSITION" : 0,
                        "NORMAL" : 1,
                        "TEXCOORD_0" : 2
                    },
                    "indices" : 3,
                    "material" : 0
                }
            ]
        }
    ],
    "textures" : [
        {
            "sampler" : 0,
            "source" : 0
        },
        {
            "sampler" : 0,
            "source" : 1
        },
        {
            "sampler" : 0,
            "source" : 2
        }
    ],
    "images" : [
        {
            "bufferView" : 4,
            "mimeType" : "image/png",
            "name" : "DefaultMaterial_normal"
        },
        {
            "bufferView" : 5,
            "mimeType" : "image/png",
            "name" : "DefaultMaterial_metallicRoughness"
        },
        {
            "bufferView" : 6,
            "mimeType" : "image/jpeg",
            "name" : "DefaultMaterial_baseColor"
        }
    ],
    "accessors" : [
        {
            "bufferView" : 0,
            "componentType" : 5126,
            "count" : 892,
            "max" : [
                0.35038045048713684,
                0.986316978931427,
                0.5968810319900513
            ],
            "min" : [
                -0.6229453682899475,
                -0.01750820316374302,
                -0.6518104076385498
            ],
            "type" : "VEC3"
        },
        {
            "bufferView" : 1,
            "componentType" : 5126,
            "count" : 892,
            "type" : "VEC3"
        },
        {
            "bufferView" : 2,
            "componentType" : 5126,
            "count" : 892,
            "type" : "VEC2"
        },
        {
            "bufferView" : 3,
            "componentType" : 5123,
            "count" : 894,
            "type" : "SCALAR"
        }
    ],
    "bufferViews" : [
        {
            "buffer" : 0,
            "byteLength" : 10704,
            "byteOffset" : 0
        },
        {
            "buffer" : 0,
            "byteLength" : 10704,
            "byteOffset" : 10704
        },
        {
            "buffer" : 0,
            "byteLength" : 7136,
            "byteOffset" : 21408
        },
        {
            "buffer" : 0,
            "byteLength" : 1788,
            "byteOffset" : 28544
        },
        {
            "buffer" : 0,
            "byteLength" : 8961,
            "byteOffset" : 30332
        },
        {
            "buffer" : 0,
            "byteLength" : 170785,
            "byteOffset" : 39296
        },
        {
            "buffer" : 0,
            "byteLength" : 609007,
            "byteOffset" : 210084
        }
    ],
    "samplers" : [
        {
            "magFilter" : 9729,
            "minFilter" : 9987
        }
    ],
    "buffers" : [
        {
            "byteLength" : 819092,
            "uri" : "data:application/octet-stream;base64,"
        }
    ]
}
