{
    "asset" : {
        "generator" : "Khronos glTF Blender I/O v1.8.19",
        "version" : "2.0"
    },
    "scene" : 0,
    "scenes" : [
        {
            "name" : "Scene",
            "nodes" : [
                0
            ]
        }
    ],
    "nodes" : [
        {
            "mesh" : 0,
            "name" : "towncenter",
            "rotation" : [
                0,
                -0.6919548511505127,
                0,
                0.721940815448761
            ],
            "scale" : [
                0.6361528038978577,
                0.6361531615257263,
                0.6361527442932129
            ]
        }
    ],
    "materials" : [
        {
            "doubleSided" : true,
            "name" : "towncentermat",
            "pbrMetallicRoughness" : {
                "baseColorTexture" : {
                    "index" : 0
                },
                "metallicFactor" : 0,
                "roughnessFactor" : 0.5
            }
        }
    ],
    "meshes" : [
        {
            "name" : "towncenter",
            "primitives" : [
                {
                    "attributes" : {
                        "POSITION" : 0,
                        "NORMAL" : 1,
                        "TEXCOORD_0" : 2
                    },
                    "indices" : 3,
                    "material" : 0
                }
            ]
        }
    ],
    "textures" : [
        {
            "sampler" : 0,
            "source" : 0
        }
    ],
    "images" : [
        {
            "bufferView" : 4,
            "mimeType" : "image/png",
            "name" : "Gradients"
        }
    ],
    "accessors" : [
        {
            "bufferView" : 0,
            "componentType" : 5126,
            "count" : 2691,
            "max" : [
                1.6237924098968506,
                3.1450343132019043,
                1.8949637413024902
            ],
            "min" : [
                -1.5708796977996826,
                1.1920928955078125e-07,
                -1.962759017944336
            ],
            "type" : "VEC3"
        },
        {
            "bufferView" : 1,
            "componentType" : 5126,
            "count" : 2691,
            "type" : "VEC3"
        },
        {
            "bufferView" : 2,
            "componentType" : 5126,
            "count" : 2691,
            "type" : "VEC2"
        },
        {
            "bufferView" : 3,
            "componentType" : 5123,
            "count" : 5613,
            "type" : "SCALAR"
        }
    ],
    "bufferViews" : [
        {
            "buffer" : 0,
            "byteLength" : 32292,
            "byteOffset" : 0
        },
        {
            "buffer" : 0,
            "byteLength" : 32292,
            "byteOffset" : 32292
        },
        {
            "buffer" : 0,
            "byteLength" : 21528,
            "byteOffset" : 64584
        },
        {
            "buffer" : 0,
            "byteLength" : 11226,
            "byteOffset" : 86112
        },
        {
            "buffer" : 0,
            "byteLength" : 82823,
            "byteOffset" : 97340
        }
    ],
    "samplers" : [
        {
            "magFilter" : 9729,
            "minFilter" : 9987
        }
    ],
    "buffers" : [
        {
            "byteLength" : 180164,
            "uri" : "data:application/octet-stream;base64,"
        }
    ]
}
