{
    "asset" : {
        "generator" : "Khronos glTF Blender I/O v1.8.19",
        "version" : "2.0"
    },
    "scene" : 0,
    "scenes" : [
        {
            "name" : "Scene",
            "nodes" : [
                0
            ]
        }
    ],
    "nodes" : [
        {
            "mesh" : 0,
            "name" : "well"
        }
    ],
    "materials" : [
        {
            "doubleSided" : true,
            "name" : "wellmat",
            "pbrMetallicRoughness" : {
                "baseColorTexture" : {
                    "index" : 0
                },
                "metallicFactor" : 0,
                "roughnessFactor" : 0.5
            }
        }
    ],
    "meshes" : [
        {
            "name" : "well",
            "primitives" : [
                {
                    "attributes" : {
                        "POSITION" : 0,
                        "NORMAL" : 1,
                        "TEXCOORD_0" : 2
                    },
                    "indices" : 3,
                    "material" : 0
                }
            ]
        }
    ],
    "textures" : [
        {
            "sampler" : 0,
            "source" : 0
        }
    ],
    "images" : [
        {
            "bufferView" : 4,
            "mimeType" : "image/png",
            "name" : "Gradients"
        }
    ],
    "accessors" : [
        {
            "bufferView" : 0,
            "componentType" : 5126,
            "count" : 1143,
            "max" : [
                0.5469018220901489,
                0.7158422470092773,
                0.39819493889808655
            ],
            "min" : [
                -0.3759118914604187,
                -0.0025293754879385233,
                -0.5369431972503662
            ],
            "type" : "VEC3"
        },
        {
            "bufferView" : 1,
            "componentType" : 5126,
            "count" : 1143,
            "type" : "VEC3"
        },
        {
            "bufferView" : 2,
            "componentType" : 5126,
            "count" : 1143,
            "type" : "VEC2"
        },
        {
            "bufferView" : 3,
            "componentType" : 5123,
            "count" : 1932,
            "type" : "SCALAR"
        }
    ],
    "bufferViews" : [
        {
            "buffer" : 0,
            "byteLength" : 13716,
            "byteOffset" : 0
        },
        {
            "buffer" : 0,
            "byteLength" : 13716,
            "byteOffset" : 13716
        },
        {
            "buffer" : 0,
            "byteLength" : 9144,
            "byteOffset" : 27432
        },
        {
            "buffer" : 0,
            "byteLength" : 3864,
            "byteOffset" : 36576
        },
        {
            "buffer" : 0,
            "byteLength" : 82823,
            "byteOffset" : 40440
        }
    ],
    "samplers" : [
        {
            "magFilter" : 9729,
            "minFilter" : 9987
        }
    ],
    "buffers" : [
        {
            "byteLength" : 123264,
            "uri" : "data:application/octet-stream;base64,"
        }
    ]
}
